<svg id="visual" viewBox="0 0 900 600" width="900" height="600" xmlns="http://www.w3.org/2000/svg" xmlns:xlink="http://www.w3.org/1999/xlink" version="1.1"><rect x="0" y="0" width="900" height="600" fill="#fff"></rect><path d="M0 214L21.5 231.8C43 249.7 86 285.3 128.8 296.3C171.7 307.3 214.3 293.7 257.2 297.3C300 301 343 322 385.8 325.5C428.7 329 471.3 315 514.2 298.3C557 281.7 600 262.3 642.8 270.7C685.7 279 728.3 315 771.2 326.3C814 337.7 857 324.3 878.5 317.7L900 311L900 601L878.5 601C857 601 814 601 771.2 601C728.3 601 685.7 601 642.8 601C600 601 557 601 514.2 601C471.3 601 428.7 601 385.8 601C343 601 300 601 257.2 601C214.3 601 171.7 601 128.8 601C86 601 43 601 21.5 601L0 601Z" fill="#fef6e4"></path><path d="M0 287L21.5 305.5C43 324 86 361 128.8 360.5C171.7 360 214.3 322 257.2 307C300 292 343 300 385.8 312.3C428.7 324.7 471.3 341.3 514.2 349.8C557 358.3 600 358.7 642.8 363.2C685.7 367.7 728.3 376.3 771.2 380C814 383.7 857 382.3 878.5 381.7L900 381L900 601L878.5 601C857 601 814 601 771.2 601C728.3 601 685.7 601 642.8 601C600 601 557 601 514.2 601C471.3 601 428.7 601 385.8 601C343 601 300 601 257.2 601C214.3 601 171.7 601 128.8 601C86 601 43 601 21.5 601L0 601Z" fill="#fbedda"></path><path d="M0 364L21.5 362.8C43 361.7 86 359.3 128.8 371.7C171.7 384 214.3 411 257.2 419C300 427 343 416 385.8 416.3C428.7 416.7 471.3 428.3 514.2 436.7C557 445 600 450 642.8 435C685.7 420 728.3 385 771.2 377C814 369 857 388 878.5 397.5L900 407L900 601L878.5 601C857 601 814 601 771.2 601C728.3 601 685.7 601 642.8 601C600 601 557 601 514.2 601C471.3 601 428.7 601 385.8 601C343 601 300 601 257.2 601C214.3 601 171.7 601 128.8 601C86 601 43 601 21.5 601L0 601Z" fill="#f8e4d1"></path><path d="M0 452L21.5 447.7C43 443.3 86 434.7 128.8 440.8C171.7 447 214.3 468 257.2 474.5C300 481 343 473 385.8 468C428.7 463 471.3 461 514.2 458.7C557 456.3 600 453.7 642.8 452.3C685.7 451 728.3 451 771.2 455.8C814 460.7 857 470.3 878.5 475.2L900 480L900 601L878.5 601C857 601 814 601 771.2 601C728.3 601 685.7 601 642.8 601C600 601 557 601 514.2 601C471.3 601 428.7 601 385.8 601C343 601 300 601 257.2 601C214.3 601 171.7 601 128.8 601C86 601 43 601 21.5 601L0 601Z" fill="#f5dbc8"></path><path d="M0 507L21.5 514.5C43 522 86 537 128.8 544C171.7 551 214.3 550 257.2 550C300 550 343 551 385.8 550.2C428.7 549.3 471.3 546.7 514.2 538.2C557 529.7 600 515.3 642.8 507.7C685.7 500 728.3 499 771.2 499.5C814 500 857 502 878.5 503L900 504L900 601L878.5 601C857 601 814 601 771.2 601C728.3 601 685.7 601 642.8 601C600 601 557 601 514.2 601C471.3 601 428.7 601 385.8 601C343 601 300 601 257.2 601C214.3 601 171.7 601 128.8 601C86 601 43 601 21.5 601L0 601Z" fill="#f3d2c1"></path></svg>