<svg id="visual" viewBox="0 0 900 600" width="900" height="600" xmlns="http://www.w3.org/2000/svg" xmlns:xlink="http://www.w3.org/1999/xlink" version="1.1"><rect x="0" y="0" width="900" height="600" fill="#8BD3DD"></rect><path d="M0 230L21.5 241.2C43 252.3 86 274.7 128.8 278.3C171.7 282 214.3 267 257.2 251C300 235 343 218 385.8 212.3C428.7 206.7 471.3 212.3 514.2 216.2C557 220 600 222 642.8 211.8C685.7 201.7 728.3 179.3 771.2 174.8C814 170.3 857 183.7 878.5 190.3L900 197L900 601L878.5 601C857 601 814 601 771.2 601C728.3 601 685.7 601 642.8 601C600 601 557 601 514.2 601C471.3 601 428.7 601 385.8 601C343 601 300 601 257.2 601C214.3 601 171.7 601 128.8 601C86 601 43 601 21.5 601L0 601Z" fill="#fef6e4"></path><path d="M0 324L21.5 307C43 290 86 256 128.8 262C171.7 268 214.3 314 257.2 316.2C300 318.3 343 276.7 385.8 254.8C428.7 233 471.3 231 514.2 232C557 233 600 237 642.8 240.7C685.7 244.3 728.3 247.7 771.2 257.3C814 267 857 283 878.5 291L900 299L900 601L878.5 601C857 601 814 601 771.2 601C728.3 601 685.7 601 642.8 601C600 601 557 601 514.2 601C471.3 601 428.7 601 385.8 601C343 601 300 601 257.2 601C214.3 601 171.7 601 128.8 601C86 601 43 601 21.5 601L0 601Z" fill="#fbedda"></path><path d="M0 332L21.5 344C43 356 86 380 128.8 381C171.7 382 214.3 360 257.2 353.5C300 347 343 356 385.8 355.3C428.7 354.7 471.3 344.3 514.2 342C557 339.7 600 345.3 642.8 359.5C685.7 373.7 728.3 396.3 771.2 402.8C814 409.3 857 399.7 878.5 394.8L900 390L900 601L878.5 601C857 601 814 601 771.2 601C728.3 601 685.7 601 642.8 601C600 601 557 601 514.2 601C471.3 601 428.7 601 385.8 601C343 601 300 601 257.2 601C214.3 601 171.7 601 128.8 601C86 601 43 601 21.5 601L0 601Z" fill="#f8e4d1"></path><path d="M0 423L21.5 418.3C43 413.7 86 404.3 128.8 410.3C171.7 416.3 214.3 437.7 257.2 442.7C300 447.7 343 436.3 385.8 433.3C428.7 430.3 471.3 435.7 514.2 441.8C557 448 600 455 642.8 457.8C685.7 460.7 728.3 459.3 771.2 449.8C814 440.3 857 422.7 878.5 413.8L900 405L900 601L878.5 601C857 601 814 601 771.2 601C728.3 601 685.7 601 642.8 601C600 601 557 601 514.2 601C471.3 601 428.7 601 385.8 601C343 601 300 601 257.2 601C214.3 601 171.7 601 128.8 601C86 601 43 601 21.5 601L0 601Z" fill="#f5dbc8"></path><path d="M0 529L21.5 524.8C43 520.7 86 512.3 128.8 509.2C171.7 506 214.3 508 257.2 509.8C300 511.7 343 513.3 385.8 511.2C428.7 509 471.3 503 514.2 496.8C557 490.7 600 484.3 642.8 491.3C685.7 498.3 728.3 518.7 771.2 528.7C814 538.7 857 538.3 878.5 538.2L900 538L900 601L878.5 601C857 601 814 601 771.2 601C728.3 601 685.7 601 642.8 601C600 601 557 601 514.2 601C471.3 601 428.7 601 385.8 601C343 601 300 601 257.2 601C214.3 601 171.7 601 128.8 601C86 601 43 601 21.5 601L0 601Z" fill="#f3d2c1"></path></svg>